<?xml version="1.0" standalone="no"?>
<!DOCTYPE svg PUBLIC "-//W3C//DTD SVG 20010904//EN"
 "http://www.w3.org/TR/2001/REC-SVG-20010904/DTD/svg10.dtd">
<svg version="1.0" xmlns="http://www.w3.org/2000/svg"
 width="1254.000000pt" height="1254.000000pt" viewBox="0 0 1254.000000 1254.000000"
 preserveAspectRatio="xMidYMid meet">

<g transform="translate(0.000000,1254.000000) scale(0.100000,-0.100000)"
fill="#000000" stroke="none">
<path d="M0 6270 l0 -6270 6270 0 6270 0 0 6270 0 6270 -6270 0 -6270 0 0
-6270z m6640 3155 c719 -98 1352 -443 1853 -1008 l78 -88 -20 -27 c-11 -15
-91 -113 -178 -218 -87 -104 -196 -238 -243 -297 -47 -58 -88 -105 -91 -104
-4 1 -38 43 -77 92 -528 683 -1369 985 -2170 779 -166 -42 -277 -85 -451 -175
l-135 -70 -100 3 -101 3 -3 80 -3 80 113 67 c140 82 209 117 338 168 734 293
1538 191 2195 -278 126 -90 165 -123 288 -241 60 -59 111 -100 116 -95 4 5 47
58 96 117 l88 108 -89 86 c-340 327 -741 559 -1179 682 -719 200 -1528 60
-2150 -374 l-95 -66 0 -2259 0 -2258 98 -64 c152 -100 210 -134 364 -208 379
-182 794 -263 1226 -239 1247 69 2296 1029 2522 2309 17 96 39 306 40 373 0
16 -51 17 -933 17 l-933 0 -67 -137 c-36 -75 -64 -140 -61 -145 3 -4 374 -8
825 -8 l819 0 0 -21 c0 -55 -56 -289 -102 -428 -142 -426 -409 -823 -753
-1119 -342 -294 -775 -494 -1202 -556 -129 -19 -433 -22 -563 -5 -311 38 -640
155 -910 322 l-85 53 -3 72 -3 72 129 0 129 0 135 -70 c158 -82 353 -150 523
-182 102 -19 154 -22 345 -22 193 -1 242 3 343 22 645 123 1226 579 1540 1207
42 86 147 351 147 374 0 8 -254 11 -870 11 -478 0 -870 3 -870 8 0 4 56 122
124 262 68 140 157 324 197 407 l74 153 1143 0 1142 0 0 -193 c0 -305 -44
-592 -137 -897 -142 -463 -424 -930 -769 -1274 -317 -315 -690 -553 -1099
-701 -905 -328 -1883 -178 -2674 411 l-91 68 0 2391 0 2391 91 68 c456 340
935 527 1500 586 117 12 451 4 589 -15z m-2425 -1247 c-277 -329 -474 -707
-580 -1110 -71 -273 -79 -342 -79 -653 0 -298 4 -342 60 -595 97 -437 335
-904 633 -1243 l51 -58 0 -180 c0 -98 -4 -179 -8 -179 -5 0 -60 53 -123 118
-459 469 -754 1076 -856 1757 -22 151 -25 570 -5 715 96 681 411 1318 887
1795 l100 100 3 -183 2 -182 -85 -102z m3154 -25 c0 -5 -31 -69 -67 -143 l-67
-135 -988 -3 -987 -2 2 -638 3 -637 686 -5 686 -5 -63 -133 -63 -132 -753 2
-753 3 -3 905 c-1 498 0 911 3 918 3 9 250 12 1185 12 649 0 1180 -3 1179 -7z
m-3071 -644 l1 -241 -44 -111 c-54 -138 -88 -253 -117 -400 -20 -98 -23 -143
-23 -352 0 -156 5 -266 13 -315 25 -140 80 -336 125 -447 l46 -110 0 -259 1
-259 -21 25 c-36 43 -129 207 -189 334 -99 207 -168 424 -210 656 -27 148 -37
433 -21 589 38 360 169 730 370 1043 31 49 59 88 63 88 3 0 6 -108 6 -241z
m2066 -1491 c-3 -12 -32 -74 -63 -137 l-56 -116 -490 -2 -490 -2 0 -457 0
-456 510 1 c281 1 625 -1 766 -5 l255 -7 62 -121 c34 -67 62 -125 62 -129 0
-4 -432 -7 -960 -7 l-960 0 0 723 c0 398 3 727 7 730 4 4 312 7 685 7 l679 -1
-7 -21z"/>
</g>
</svg>
